<?xml version="1.0" encoding="UTF-8" standalone="no"?>
<!DOCTYPE svg PUBLIC "-//W3C//DTD SVG 1.1//EN" "http://www.w3.org/Graphics/SVG/1.1/DTD/svg11.dtd">
<svg width="100%" height="100%" viewBox="0 0 512 512" version="1.1" xmlns="http://www.w3.org/2000/svg" xmlns:xlink="http://www.w3.org/1999/xlink" xml:space="preserve" xmlns:serif="http://www.serif.com/" style="fill-rule:evenodd;clip-rule:evenodd;stroke-linejoin:round;stroke-miterlimit:2;fill:white;">
    <path d="M391.227,215.371c-4.517,0 -8.174,3.659 -8.174,8.168c-0,4.522 3.657,8.179 8.174,8.179c4.515,0 8.173,-3.657 8.173,-8.179c-0,-4.509 -3.658,-8.168 -8.173,-8.168Zm-102.156,-195.727c-65.26,-9.125 -128.051,9.056 -176.81,45.849c-48.758,36.785 -83.483,92.173 -92.612,157.431c-9.131,65.266 9.056,128.057 45.845,176.818c36.785,48.756 92.171,83.476 157.434,92.61c65.267,9.135 128.058,-9.055 176.812,-45.841c13.628,-10.283 29.141,-25.261 40.328,-38.256c-4.836,-13.211 -7.418,-19.908 -10.574,-32.844c-13.081,19.327 -28.238,34.786 -46.664,48.682c-43.018,32.454 -98.426,48.501 -156.007,40.445c-57.59,-8.056 -106.46,-38.7 -138.915,-81.711c-32.457,-43.02 -48.502,-98.42 -40.445,-156.009c8.06,-57.588 38.695,-106.454 81.713,-138.907c43.018,-32.461 98.418,-48.508 156.007,-40.445c57.589,8.056 106.456,38.693 138.915,81.711c32.454,43.02 48.501,98.413 40.443,156.001c-1.307,9.344 -2.194,14.623 -4.645,23.47c4.49,14.388 7.788,36.419 9.612,54.126c11.283,-22.568 19.157,-47.33 22.842,-73.701c9.133,-65.259 -9.049,-128.05 -45.841,-176.811c-36.786,-48.762 -92.173,-83.483 -157.438,-92.618Zm81.756,154.257c28.3,-1.131 37.008,0.099 47.416,20.876c4.222,8.435 5.945,19.771 4.469,30.801c-2.405,17.954 -8.565,8.259 -1.033,26.749c9.461,23.201 36.511,108.722 30.866,133.001c-7.148,-7.525 -13.799,-77.412 -53.877,-118.809c-9.395,-9.711 -16.608,-17.995 -36.091,-12.233c-43.32,12.826 -57.526,-15.634 -82.877,3.431c-14.184,10.675 -7.946,18.497 -13.883,36.713c-5.161,15.831 -12.271,19.798 -23.834,27.397c0.184,7.964 -1.395,36.198 7.031,41.071c12.76,5.684 32.765,-5.469 44.18,8.055c-10.095,1.675 -17.89,-2.625 -27.084,3.367c8.992,9.624 36.805,10.918 42.367,25.266c-10.933,-2.352 -3.57,-3.731 -26.653,-6.646c-10.999,-1.39 -16.79,-5.193 -26.189,-8.396c1.619,7.371 3.631,12.206 2.101,20.503c-2.922,-1.947 -3.484,-5.148 -5.789,-8.29c-2.805,-3.835 -4.961,-5.482 -7.572,-8.618c-7.337,-8.815 -10.938,-8.822 -17.608,-15.303c-1.526,-11.774 2.354,-27.194 0.497,-41.973c-1.47,-11.695 -1.137,-11.814 -25.587,-19.706c-3.355,4.475 -4.707,8.07 -7.842,12.226c-6.446,8.552 -22.66,11.702 -13.894,44.402c3.04,11.35 9.406,5.208 29.048,12.231c11.287,4.039 19.924,10.056 23.55,19.086c-5.157,-0.367 -9.891,-4.359 -15.325,-6.247c-4.933,-1.712 -13.197,-3.592 -18.169,-4.324c5.756,11.276 18.307,16.178 16.566,35.289c-0.356,-0.243 -0.856,-1.079 -1.017,-0.791c-0.328,0.582 -6.339,-8.259 -15.625,-14.819c-7.434,-5.252 -11.87,-12.832 -16.89,-15.792c-18.55,-10.931 -38.043,16.68 -41.335,18.712c-1.965,-13.126 8.239,-25.083 14.276,-29.983c5.916,-4.795 6.495,-5.227 7.408,-15.491c4.963,-55.819 -12.486,-18.171 -46.094,-67.944c-27.198,-40.276 -26.376,-105.26 2.528,-144.445c39.4,-53.418 133.736,-64.873 203.27,-22.736c14.427,8.748 41.946,30.859 48.695,43.37Z"/>
</svg>
